<?xml version="1.0" standalone="no"?>
<!DOCTYPE svg PUBLIC "-//W3C//DTD SVG 20010904//EN"
 "http://www.w3.org/TR/2001/REC-SVG-20010904/DTD/svg10.dtd">
<svg version="1.0" xmlns="http://www.w3.org/2000/svg"
 width="80.000000pt" height="80.000000pt" viewBox="0 0 80.000000 80.000000"
 preserveAspectRatio="xMidYMid meet">
<metadata>
Created by potrace 1.14, written by Peter Selinger 2001-2017
</metadata>
<g transform="translate(0.000000,80.000000) scale(0.100000,-0.100000)"
fill="#000000" stroke="none">
<path d="M290 784 c-120 -36 -230 -141 -268 -257 -28 -83 -24 -200 9 -277 26
-62 28 -64 89 -131 25 -27 50 -49 57 -49 7 0 13 -3 13 -8 0 -4 28 -19 63 -32
50 -20 79 -25 152 -25 80 0 97 4 155 31 64 31 170 116 170 137 0 6 6 18 14 26
31 35 55 135 52 217 -3 75 -29 161 -61 202 -48 62 -109 114 -169 143 -58 28
-80 33 -150 35 -46 1 -100 -4 -126 -12z"/>
</g>
</svg>
